PathFileType	4	(X/Y/Z)	C:/Users/opensim2020/Desktop/walking_exp_matlab/subject02_walking13_straight_04.trc	
DataRate	CameraRate	NumFrames	NumMarkers	Units	OrigDataRate	OrigDataStartFrame	OrigNumFrames	
100.00	100.00	4	41	mm	100.00	1809	118	
Frame#	Time	LFHD			RFHD			LBHD			RBHD			C7			T10			CLAV			STRN			RBAK			LSHO			LUPA			LELB			LFRM			LWRA			LWRB			LFIN			RSHO			RUPA			RELB			RFRM			RWRA			RWRB			RFIN			LASI			RASI			LPSI			RPSI			LTHI			LKNE			LTIB			LANK			LHEE			LTOE			RTHI			RKNE			RTIB			RANK			RHEE			RTOE			*39			*40			
		X1	Y1	Z1	X2	Y2	Z2	X3	Y3	Z3	X4	Y4	Z4	X5	Y5	Z5	X6	Y6	Z6	X7	Y7	Z7	X8	Y8	Z8	X9	Y9	Z9	X10	Y10	Z10	X11	Y11	Z11	X12	Y12	Z12	X13	Y13	Z13	X14	Y14	Z14	X15	Y15	Z15	X16	Y16	Z16	X17	Y17	Z17	X18	Y18	Z18	X19	Y19	Z19	X20	Y20	Z20	X21	Y21	Z21	X22	Y22	Z22	X23	Y23	Z23	X24	Y24	Z24	X25	Y25	Z25	X26	Y26	Z26	X27	Y27	Z27	X28	Y28	Z28	X29	Y29	Z29	X30	Y30	Z30	X31	Y31	Z31	X32	Y32	Z32	X33	Y33	Z33	X34	Y34	Z34	X35	Y35	Z35	X36	Y36	Z36	X37	Y37	Z37	X38	Y38	Z38	X39	Y39	Z39	X40	Y40	Z40	X41	Y41	Z41	

74	0.730	1430.61780	-144.12544	1720.45557	1292.29126	-114.74229	1690.40295	1469.28918	-7.35743	1670.20007	1333.69788	33.23079	1640.93042	1405.53198	76.87386	1515.76965	1403.42297	106.19245	1231.11731	1419.64001	-64.02250	1454.89172	1423.28674	-132.52017	1290.32471	1350.07239	121.65362	1327.37732	1584.40186	14.48405	1502.55969	1688.98523	2.96720	1315.32629	1730.75391	-34.14878	1183.46606	1751.48694	-132.82518	1091.82764	1718.79309	-259.22815	1040.17004	1756.82422	-228.19511	1012.45038	1755.91675	-288.63541	980.62598	1222.06396	4.58464	1473.24280	1149.20203	48.66940	1283.47595	1136.08228	48.17432	1137.75928	1113.12573	36.53472	1020.02161	1122.07971	0.49141	888.38232	1099.89441	52.47086	891.07935	1090.17053	24.11874	824.33698	1563.09045	-112.74411	975.71539	1311.96594	-157.19048	978.16620	1448.23523	80.42399	1020.15527	1333.75073	67.90929	1024.31152	1621.43835	-60.02141	663.88214	1614.02783	-52.62185	484.23227	1592.77563	100.34590	387.51318	1557.18555	247.00514	222.97357	1495.02856	272.80023	219.20039	1604.33154	189.31544	84.60969	1242.96497	-135.92776	669.77057	1295.70129	-153.64995	463.34506	1287.60217	-113.47289	278.08911	1327.80383	-79.94231	89.62020	1379.69226	-36.33890	37.74889	1330.92029	-230.46078	36.17643	1352.04993	-38.50414	1795.02844	-3357.11938	2846.10645	1034.30151 
75	0.740	1430.30933	-157.29391	1722.57654	1292.04004	-127.78070	1692.31702	1469.26318	-20.49760	1672.68213	1333.68201	20.21449	1643.22241	1405.40356	64.04121	1518.38074	1402.84729	93.88348	1233.57581	1419.91724	-76.59126	1457.16309	1423.46631	-144.86659	1292.53821	1348.95764	108.90730	1330.18640	1584.45593	2.48419	1504.56885	1687.70911	-6.69190	1316.13623	1727.68469	-41.61789	1183.14441	1748.06201	-136.65320	1087.46228	1714.69104	-260.55753	1030.09058	1753.13306	-228.49428	1004.15631	1752.56860	-287.21918	969.93420	1221.80042	-9.17572	1476.25586	1147.73914	32.10176	1285.99011	1134.81421	30.34012	1140.36572	1112.01965	15.32663	1022.66785	1121.76306	-22.99969	892.14166	1099.09326	28.62430	893.30774	1089.47302	-1.51433	827.53711	1564.38574	-124.00772	980.01276	1311.89551	-168.99010	980.01355	1447.15186	67.94029	1022.90582	1332.96875	55.75119	1026.37415	1621.69910	-79.33317	667.52869	1613.69031	-76.52654	488.01877	1591.89404	73.53079	387.87747	1557.20837	216.15909	218.97321	1495.32019	242.68408	213.93745	1604.70728	152.54832	83.64410	1242.52441	-142.09216	670.28363	1295.11255	-156.37038	463.03238	1287.45581	-114.02398	278.15488	1327.99548	-79.96978	89.81696	1380.13879	-36.43114	37.67993	1330.71619	-230.31883	36.18835	1351.67688	-51.77150	1797.17224			 
76	0.750	1429.89246	-170.59338	1724.32288	1291.91394	-140.88745	1694.10645	1469.19971	-33.60576	1674.84424	1333.71802	7.28257	1645.29846	1405.27405	51.25891	1520.74829	1402.22058	81.52092	1235.85876	1420.25598	-89.24628	1459.26392	1423.52637	-157.17821	1294.53796	1347.77600	96.06973	1332.72400	1584.48071	-9.54475	1506.38354	1686.22827	-16.61951	1316.73108	1724.60510	-49.24313	1182.66553	1744.41895	-140.22148	1082.75146	1710.84119	-261.20694	1019.94244	1749.46484	-228.06972	995.66724	1748.85059	-285.31299	958.75690	1222.32593	-21.81967	1479.47144	1146.92627	16.82091	1288.51770	1133.13013	12.31367	1142.81018	1111.44849	-5.40378	1025.52100	1121.92688	-46.29191	895.69208	1098.26440	5.23311	895.68719	1089.07007	-27.51517	831.09967	1565.12231	-135.60628	984.29248	1311.83765	-180.27049	981.52234	1446.54565	55.33163	1025.51404	1332.29236	43.54060	1028.37109	1622.09253	-98.27740	671.08374	1613.29150	-99.89056	491.68729	1591.44275	46.90891	387.27466	1557.59131	184.48698	213.73241	1495.96655	211.52298	207.41516	1605.21252	114.96175	81.79502	1242.28113	-148.38351	670.67078	1294.71240	-158.71211	462.68674	1287.17432	-114.37545	278.34079	1328.13269	-79.86703	90.00020	1380.04016	-35.96919	37.46040	1330.61633	-230.21262	36.17910	1351.51636	-65.03927	1799.13904			 
77	0.760	1430.07153	-183.64432	1726.04028	1291.88696	-153.96402	1695.73389	1469.31567	-46.69060	1676.78015	1333.77075	-5.70986	1647.21106	1405.29126	38.29432	1522.80542	1401.39783	69.13609	1237.92798	1420.59875	-101.87935	1461.14575	1423.49402	-169.60138	1296.41162	1347.25305	83.88080	1335.29602	1584.63562	-21.48250	1507.95093	1685.26172	-26.49766	1317.47009	1722.09143	-56.68155	1182.43994	1741.47729	-143.02162	1078.37927	1707.20837	-261.17151	1009.69702	1745.93140	-227.00343	987.18262	1745.62976	-282.04117	947.76312	1222.67725	-34.95316	1482.28333	1145.50916	-0.24943	1291.25781	1131.78687	-5.71778	1145.24207	1110.74622	-26.03991	1028.18994	1121.96436	-69.97170	899.39362	1097.54443	-18.80406	898.09918	1088.61304	-53.43235	834.39417	1564.86475	-147.67189	988.23761	1311.37256	-191.72623	982.98120	1446.38953	42.75264	1027.90063	1332.02124	31.19575	1030.28418	1622.55042	-116.69132	674.71527	1612.87610	-122.92366	495.00146	1591.34424	20.57483	385.61234	1558.49048	152.16621	207.53983	1496.78528	179.34378	199.76248	1605.58008	76.31025	78.82131	1242.38879	-154.51245	670.91858	1294.44922	-161.02707	462.51758	1286.89636	-114.61523	278.64960	1328.26868	-79.82639	90.10104	1380.24084	-35.95984	37.59451	1330.71362	-229.99449	35.85498	1351.57397	-78.28909	1801.04077			 
